<svg width="121" height="32" viewBox="0 0 121 32" fill="none" xmlns="http://www.w3.org/2000/svg">
<g clip-path="url(#clip0_387_703)">
<path fill-rule="evenodd" clip-rule="evenodd" d="M12.6447 0C12.6447 0 16.4351 4.88177 25.289 5.9657V16.9508C25.289 22.5118 22.8399 26.171 12.6443 32.0018C2.44861 26.1697 0 22.5081 0 16.949V5.96388C8.85426 4.88177 12.6447 0 12.6447 0ZM7.95146 10.5143H3.83997V20.1142H6.03823V17.4673H7.95146C8.70286 17.4849 9.44953 17.3424 10.143 17.0488C10.727 16.799 11.2245 16.379 11.5721 15.8423C11.9143 15.2904 12.0889 14.649 12.0742 13.9976C12.0994 13.3492 11.9279 12.7085 11.5826 12.1618C11.2373 11.6151 10.7349 11.1885 10.143 10.9395C9.4507 10.6415 8.70353 10.4965 7.95146 10.5143ZM7.82943 15.6572H6.03823V12.3243H7.82943C8.36586 12.2866 8.89849 12.4394 9.33561 12.7564C9.50997 12.9093 9.64718 13.1008 9.73659 13.3161C9.82601 13.5313 9.86522 13.7645 9.85118 13.9976C9.86413 14.2284 9.82436 14.4591 9.73495 14.6719C9.64553 14.8846 9.50888 15.0736 9.33561 15.2242C8.89861 15.5415 8.36597 15.6947 7.82943 15.6572ZM19.9784 15.1226C20.3645 14.9275 20.6879 14.6255 20.9111 14.2516C21.1343 13.8778 21.2481 13.4475 21.2392 13.0108C21.2488 12.6522 21.1686 12.2969 21.0061 11.9781C20.8436 11.6593 20.6041 11.3874 20.3098 11.1875C19.5106 10.6906 18.5793 10.4559 17.6432 10.5156H13.0036V20.1142H17.9157C18.9045 20.1787 19.8897 19.9423 20.7447 19.4355C21.0575 19.2236 21.311 18.9338 21.481 18.5939C21.6509 18.2541 21.7316 17.8756 21.7151 17.4951C21.7323 16.9561 21.5695 16.427 21.2531 15.9932C20.9288 15.5746 20.4827 15.2699 19.9779 15.1221L19.9784 15.1226ZM15.1883 12.1876H17.3731C17.8027 12.1599 18.2312 12.2575 18.6077 12.4688C18.7449 12.5595 18.8559 12.6853 18.9298 12.8333C19.0036 12.9814 19.0376 13.1465 19.0283 13.3121C19.0371 13.4785 19.003 13.6444 18.9292 13.7935C18.8555 13.9425 18.7447 14.0696 18.6077 14.1622C18.2329 14.3783 17.8036 14.4785 17.3731 14.4502H15.1883V12.1876ZM17.7549 18.4413H15.1883V16.0684H17.7549C18.9217 16.0684 19.5051 16.4661 19.5051 17.2617C19.5165 17.4366 19.4816 17.6114 19.4041 17.7681C19.3265 17.9248 19.2091 18.0578 19.0639 18.1533C18.662 18.3714 18.2077 18.471 17.7527 18.4409L17.7549 18.4413Z" fill="#F4F4F4"/>
<path fill-rule="evenodd" clip-rule="evenodd" d="M40.2942 9.38659C41.2486 9.364 42.1968 9.54719 43.076 9.924C43.8281 10.2403 44.4669 10.7816 44.9068 11.4755C45.3468 12.1693 45.5668 12.9827 45.5376 13.8066C45.5578 14.6331 45.3347 15.447 44.8969 16.145C44.4493 16.8223 43.8166 17.3531 43.076 17.6724C42.1968 18.0492 41.2486 18.2324 40.2942 18.2098H38.2382V21.333H34.8989V9.38659H40.2942ZM40.092 15.5478C40.6457 15.5889 41.1958 15.4285 41.6432 15.0957C41.8205 14.9346 41.9596 14.735 42.0502 14.5119C42.1407 14.2888 42.1803 14.0478 42.166 13.8071C42.1797 13.5651 42.1399 13.3231 42.0495 13.0986C41.959 12.8742 41.8202 12.673 41.6432 12.5098C41.1981 12.1715 40.6471 12.0077 40.092 12.049H38.2382V15.5478H40.092ZM54.473 19.012H49.4825L48.5554 21.333H45.1495L50.3592 9.38614H53.6462L58.8726 21.333H55.4001L54.473 19.012ZM53.495 16.5201L51.9775 12.6972L50.4601 16.5201H53.495ZM65.3976 17.0493V21.3339H62.0579V16.9991L57.5551 9.38705H61.0785L63.877 14.1316L66.6791 9.38659H69.9161L65.3976 17.0493ZM79.7786 15.1039C80.405 15.3085 80.9568 15.6977 81.3636 16.2215C81.753 16.7504 81.9549 17.3968 81.9368 18.0562C81.9551 18.5351 81.8496 19.0106 81.6308 19.4357C81.4119 19.8607 81.0873 20.2206 80.689 20.4797C79.8572 21.0486 78.6545 21.333 77.081 21.333H70.7082V9.38659H76.7419C78.2479 9.38659 79.3943 9.66813 80.1811 10.2312C80.5528 10.4784 80.8562 10.8174 81.0626 11.2161C81.2691 11.6148 81.3719 12.0602 81.3613 12.5103C81.3696 13.0488 81.2264 13.5785 80.9484 14.0377C80.6636 14.4961 80.2586 14.8653 79.7786 15.1043V15.1039ZM74.0128 11.8275V14.1316H76.3056C77.4295 14.1316 77.9914 13.7448 77.9914 12.9711C77.9914 12.2087 77.4295 11.8275 76.3056 11.8275H74.0128ZM76.8112 18.8926C77.9802 18.8926 78.5646 18.4888 78.5646 17.681C78.5646 16.8733 77.9802 16.4695 76.8112 16.4695H74.0128V18.8931L76.8112 18.8926ZM91.5804 19.012H86.5899L85.6628 21.333H82.2574L87.4671 9.38614H90.7541L95.9805 21.333H92.5075L91.5804 19.012ZM90.6024 16.5201L89.0849 12.6972L87.5675 16.5201H90.6024ZM102.64 21.5719C101.482 21.5909 100.338 21.3182 99.3103 20.7783C98.351 20.2722 97.5487 19.5072 96.9923 18.5681C96.4235 17.5981 96.1317 16.4874 96.1493 15.3596C96.1317 14.2317 96.4235 13.1211 96.9923 12.1511C97.5487 11.212 98.3509 10.447 99.3103 9.94086C100.338 9.4007 101.482 9.12768 102.64 9.14638C103.641 9.13145 104.634 9.3296 105.555 9.728C106.399 10.098 107.14 10.6723 107.713 11.4004L105.589 13.3458C105.263 12.9115 104.843 12.5592 104.36 12.3165C103.878 12.0739 103.347 11.9474 102.808 11.9469C102.211 11.936 101.621 12.0831 101.097 12.3735C100.602 12.6523 100.198 13.0703 99.9335 13.5769C99.6505 14.127 99.5085 14.7403 99.5206 15.3605C99.5085 15.9807 99.6505 16.5939 99.9335 17.1441C100.198 17.6507 100.602 18.0687 101.097 18.3474C101.621 18.638 102.211 18.785 102.808 18.7741C103.347 18.7738 103.878 18.6474 104.361 18.4046C104.844 18.1618 105.264 17.8094 105.59 17.3747L107.714 19.3202C107.141 20.0482 106.4 20.6225 105.556 20.9925C104.635 21.3905 103.641 21.5881 102.64 21.5723V21.5719ZM113.75 16.9987L112.502 18.347V21.3335H109.197V9.38659H112.502V14.355L117.071 9.38659H120.746L115.925 14.6772L121 21.3321H117.122L113.75 16.9987Z" fill="#F4F4F4"/>
</g>
<defs>
<clipPath id="clip0_387_703">
<rect width="121" height="32" fill="white"/>
</clipPath>
</defs>
</svg>
